<svg width="14" height="14" viewBox="0 0 14 14" fill="none" xmlns="http://www.w3.org/2000/svg">
<g clip-path="url(#clip0_1970_577)">
<path fill-rule="evenodd" clip-rule="evenodd" d="M7.17289 0.220695C7.4038 0.494368 7.383 0.915894 7.12643 1.1622L5.55928 2.66667L7.12643 4.17113C7.383 4.41744 7.4038 4.83897 7.17289 5.11264C6.94198 5.38631 6.54679 5.4085 6.29023 5.16219L4.2069 3.16219C4.0752 3.03577 4 2.85566 4 2.66667C4 2.47768 4.0752 2.29757 4.2069 2.17114L6.29023 0.171143C6.54679 -0.0751629 6.94198 -0.0529773 7.17289 0.220695Z" fill="#F8F7FE"/>
<path fill-rule="evenodd" clip-rule="evenodd" d="M6.8271 8.88736C7.05801 8.61369 7.45319 8.5915 7.70976 8.83781L9.79309 10.8378C9.92479 10.9642 9.99999 11.1443 9.99999 11.3333C9.99999 11.5223 9.92479 11.7024 9.79309 11.8289L7.70976 13.8289C7.45319 14.0752 7.05801 14.053 6.8271 13.7793C6.59619 13.5056 6.61699 13.0841 6.87356 12.8378L8.44071 11.3333L6.87356 9.82886C6.61699 9.58256 6.59619 9.16103 6.8271 8.88736Z" fill="#F8F7FE"/>
<path fill-rule="evenodd" clip-rule="evenodd" d="M4.66666 2.64516C4.66666 2.28885 4.95157 2 5.30302 2H8.27272C11.4358 2 14 4.59964 14 7.80645V8.02151C14 8.37782 13.7151 8.66667 13.3636 8.66667C13.0122 8.66667 12.7273 8.37782 12.7273 8.02151V7.80645C12.7273 5.31226 10.7329 3.29032 8.27272 3.29032H5.30302C4.95157 3.29032 4.66666 3.00147 4.66666 2.64516Z" fill="#F8F7FE"/>
<path fill-rule="evenodd" clip-rule="evenodd" d="M0.636364 5.33333C0.987818 5.33333 1.27273 5.62218 1.27273 5.97849V6.19354C1.27273 8.68773 3.26709 10.7097 5.72727 10.7097H8.69697C9.04842 10.7097 9.33333 10.9985 9.33333 11.3548C9.33333 11.7111 9.04842 12 8.69697 12H5.72727C2.56419 12 0 9.40035 0 6.19354V5.97849C0 5.62218 0.28491 5.33333 0.636364 5.33333Z" fill="#F8F7FE"/>
</g>
<defs>
<clipPath id="clip0_1970_577">
<rect width="14" height="14" fill="white"/>
</clipPath>
</defs>
</svg>
